<?xml version="1.0" encoding="UTF-8" standalone="no"?>
<!-- Created with Inkscape (http://www.inkscape.org/) -->

<svg
   xmlns:dc="http://purl.org/dc/elements/1.1/"
   xmlns:cc="http://creativecommons.org/ns#"
   xmlns:rdf="http://www.w3.org/1999/02/22-rdf-syntax-ns#"
   xmlns:svg="http://www.w3.org/2000/svg"
   xmlns="http://www.w3.org/2000/svg"
   xmlns:sodipodi="http://sodipodi.sourceforge.net/DTD/sodipodi-0.dtd"
   xmlns:inkscape="http://www.inkscape.org/namespaces/inkscape"
   width="166.65106mm"
   height="123.93129mm"
   viewBox="0 0 166.65106 123.93129"
   id="svg2"
   version="1.1"
   inkscape:version="0.91+devel+osxmenu r12896"
   sodipodi:docname="terrier.svg">
  <defs
     id="defs4" />
  <sodipodi:namedview
     id="base"
     pagecolor="#ffffff"
     bordercolor="#666666"
     borderopacity="1.0"
     inkscape:pageopacity="0.0"
     inkscape:pageshadow="2"
     inkscape:zoom="0.35"
     inkscape:cx="410.50224"
     inkscape:cy="-122.848"
     inkscape:document-units="mm"
     inkscape:current-layer="layer1"
     showgrid="false"
     inkscape:window-width="960"
     inkscape:window-height="1117"
     inkscape:window-x="640"
     inkscape:window-y="195"
     inkscape:window-maximized="0"
     fit-margin-top="0"
     fit-margin-left="0"
     fit-margin-right="0"
     fit-margin-bottom="0" />
  <metadata
     id="metadata7">
    <rdf:RDF>
      <cc:Work
         rdf:about="">
        <dc:format>image/svg+xml</dc:format>
        <dc:type
           rdf:resource="http://purl.org/dc/dcmitype/StillImage" />
        <dc:title></dc:title>
      </cc:Work>
    </rdf:RDF>
  </metadata>
  <g
     inkscape:label="Layer 1"
     inkscape:groupmode="layer"
     id="layer1"
     transform="translate(-15.154859,-152.85206)">
    <path
       style="fill:#725da7;fill-opacity:1;stroke-width:0.57056803"
       d="m 67.021068,276.53759 c 3.859878,-0.64949 5.420387,-2.455 5.420387,-6.27135 0,-2.41031 0.246939,-3.03665 1.711704,-4.34177 1.65583,-1.47536 1.711705,-1.6885 1.711705,-6.52863 0,-4.25708 0.580264,-8.49018 2.006127,-14.63513 0.240966,-1.03848 0.690439,-1.28377 2.352307,-1.28377 1.129929,0 5.939218,-0.9129 10.687294,-2.02867 4.748045,-1.11576 12.227378,-2.39512 16.620748,-2.84302 9.67308,-0.98619 14.41068,-1.80664 18.49015,-3.20214 5.96372,-2.04007 6.21419,-1.91062 13.74694,7.10499 2.03979,2.44133 5.24924,5.6254 7.1321,7.07573 7.65059,5.89302 9.26162,8.01804 9.95555,13.1316 0.40313,2.97066 0.34967,3.14984 -1.48793,4.98744 -1.86713,1.86715 -2.47857,4.27477 -1.46942,5.78612 1.33468,1.99883 6.6754,2.72867 12.7693,1.745 2.0567,-0.33195 2.72601,-0.70957 2.9877,-1.68558 0.43709,-1.63019 0.36095,-14.11767 -0.12487,-20.4637 l -0.37824,-4.94169 -3.86525,-4.00369 c -5.32823,-5.51903 -5.89452,-7.04774 -6.69196,-18.06471 -0.7862,-10.86209 -1.75045,-16.02196 -3.76263,-20.13471 -0.8193,-1.67457 -1.39868,-3.11381 -1.28756,-3.19829 0.11105,-0.0844 2.76962,-1.51057 5.90773,-3.16904 10.967,-5.79588 17.04859,-10.81095 19.87576,-16.39009 1.89058,-3.73086 2.9633,-9.50514 2.26046,-12.16768 -0.4512,-1.70922 -0.76861,-1.99698 -2.2026,-1.99698 -1.50456,0 -1.90817,0.43995 -3.95769,4.31393 -5.3197,10.16474 -13.94818,15.59696 -24.24914,18.87221 -5.00569,1.55366 -11.44507,1.73541 -21.39632,0.60397 -5.18276,-0.58931 -8.18027,-0.56988 -17.20463,0.11151 -12.0509,0.90987 -16.735876,0.61797 -22.061118,-1.37447 -3.923342,-1.4679 -9.123838,-4.87788 -13.435369,-8.80962 -1.767966,-1.61224 -5.011779,-4.42415 -7.208475,-6.24868 -2.196674,-1.82452 -4.828416,-4.35174 -5.848301,-5.61602 -1.019906,-1.26425 -1.891878,-2.32674 -1.937725,-2.36102 -0.04593,-0.0343 -0.238442,-3.52853 -0.427931,-7.76501 -0.322501,-7.20981 -0.419715,-7.71341 -1.519131,-7.87069 -1.857114,-0.26565 -4.040073,1.89189 -6.337218,6.26335 -2.757488,5.24753 -3.894662,5.90654 -10.994821,6.37184 -6.366267,0.41723 -8.992036,1.33163 -14.447601,5.03138 -5.048033,3.42335 -8.813414,7.06836 -11.383828,11.01987 -3.268831,5.02521 -2.308099,7.35266 4.249878,10.29572 4.170109,1.87143 8.891328,2.3513 14.526743,1.47653 2.889917,-0.44859 4.497268,-0.46013 5.420414,-0.0388 1.378032,0.62882 7.935577,9.91857 8.998181,12.74726 0.340464,0.90633 0.763136,4.88605 0.939254,8.84379 0.390604,8.77724 1.234217,11.63959 4.655253,15.7951 3.365182,4.08766 4.016222,7.30198 4.499943,22.21677 l 0.351763,10.84611 -3.138903,2.68163 c -3.937577,3.36399 -4.972169,5.53617 -3.619841,7.60006 0.524435,0.8004 1.517772,1.66467 2.207457,1.92061 2.111514,0.7836 7.943233,1.09908 10.953589,0.59256 z"
       id="path4527"
       inkscape:connector-curvature="0"
       sodipodi:nodetypes="cssssssssssssscsccssscssssccsssssccscsssssscsssscssscc" />
    <path
       sodipodi:nodetypes="czzzzcczzzzz"
       inkscape:connector-curvature="0"
       id="path4561"
       d="m 39.301478,171.1648 c -1.27789,0.17468 -4.452586,1.67162 -5.472536,2.87941 -1.01995,1.20779 -1.496804,1.78516 -1.026266,3.13765 0.470538,1.35249 2.378691,2.62544 4.410805,2.92188 2.032114,0.29644 5.318243,-0.63918 6.726473,-2.04659 1.40823,-1.40741 2.136156,-3.22059 1.433367,-4.70115 -1.076093,-1.54067 -4.225758,-2.18239 -6.071843,-2.1912 z m -1.12603,3.16311 c 1.090258,-0.27735 3.649473,-0.64321 3.87418,0.56689 0.224707,1.2101 -1.932397,1.51809 -3.023587,1.70119 -1.09119,0.1831 -2.888327,0.40648 -3.118157,-0.5674 -0.22983,-0.97388 1.177306,-1.42333 2.267564,-1.70068 z"
       style="fill:#000000;fill-opacity:0.25;fill-rule:evenodd;stroke:none;stroke-width:0.26458332px;stroke-linecap:butt;stroke-linejoin:miter;stroke-opacity:1" />
  </g>
</svg>
